<svg id="Layer_1" enable-background="new 0 0 512 512" height="512" viewBox="0 0 512 512" width="512" xmlns="http://www.w3.org/2000/svg"><g><path d="m460.775 401.527c25.421-38.616 40.228-84.84 40.228-134.53 0-135.311-109.691-245.002-245.002-245.002s-245.003 109.691-245.003 245.003c0 49.689 14.807 95.913 40.227 134.529z" fill="#4fabf7"/><path d="m332.818 155.849c.197.465.391.93.569 1.394 1.122 2.928 1.92 5.952 2.413 9.023 2.604-1.261 6.325-2.635 9.509-2.185.142-4.93.399-9.997.667-14.449-4.051 2.616-8.484 4.695-13.158 6.217z" fill="#3c58a0"/><path d="m180.388 154.458c-.223.527-.443 1.054-.645 1.58-1.272 3.318-2.176 6.746-2.736 10.228-2.951-1.43-7.17-2.987-10.778-2.477-.161-5.588-.452-11.332-.756-16.378 4.591 2.966 9.616 5.321 14.915 7.047z" fill="#3c58a0"/><path d="m256 378.554c37.504 0 69.035-25.537 78.179-60.168l-12.834-5.7c-5.496-2.441-9.751-7.073-11.596-12.796-2.729-8.463-3.693-17.917-3.953-25.465-13.508 15.734-28.891 26.451-49.795 26.451-20.903 0-36.286-10.716-49.795-26.451-.26 7.551-1.226 17.009-3.957 25.475-1.846 5.723-6.103 10.355-11.599 12.794l-12.827 5.693c9.143 34.631 40.673 60.167 78.177 60.167z" fill="#fcad6d"/><path d="m206.205 274.425c-.26 7.551-1.226 17.009-3.957 25.475-1.846 5.723-6.103 10.355-11.599 12.794l-12.827 5.693c7.682 29.094 31.168 51.762 60.719 58.268 19.692-29.714 17.459-75.78 17.459-75.78-20.903.001-36.286-10.715-49.795-26.45z" fill="#fd995b"/><path d="m149.954 330.467c-5.233 2.49-10.412 5.185-15.565 8.091-7.573 4.27-10.992 6.763-17.417 7.288-38.642 3.159-57.756 27.507-67.063 53.681 17.049 26.457 39.053 49.42 64.7 67.576h35.346v-136.636z" fill="#bec8f7"/><path d="m395.028 345.846c-6.426-.525-9.844-3.019-17.417-7.288-10.662-6.012-21.424-11.142-32.576-15.35l-11.341-5.036c-9.716 33.759-40.81 58.465-77.695 58.465-35.475 0-65.583-22.858-76.477-54.639v145.106h217.869c25.647-18.156 47.651-41.119 64.7-67.576-9.307-26.175-28.421-50.523-67.063-53.682z" fill="#e9efff"/><path d="m397.392 467.103c10.813-7.655 20.969-16.173 30.388-25.438-3.098-8.348-7.751-15.098-12.566-20.366-6.898-7.546-19.464-2.686-19.464 7.537v38.267z" fill="#bec8f7"/><path d="m350.227 164.344c-3.895-3.57-11.654-1.76-15.009.426.735 4.577.777 9.259.142 13.882l-3.959 28.833c0 2.324-.073 4.605-.208 6.845 9.653 2.912 14.448-5.755 15.256-11.702.348-2.56.916-5.083 1.705-7.546 2.568-8.02 11.832-21.795 2.073-30.738z" fill="#fcad6d"/><path d="m161.773 164.344c3.895-3.57 11.654-1.76 15.009.426-.735 4.577-.777 9.259-.142 13.882l3.959 28.833c0 2.324.073 4.605.208 6.845-9.653 2.912-14.449-5.755-15.256-11.702-.348-2.56-.916-5.083-1.705-7.546-2.568-8.02-11.832-21.795-2.073-30.738z" fill="#fd995b"/><g><path d="m332.862 154.765c-5.909 1.827-12.186 2.761-18.534 2.761-4.843 0-108.942 0-113.786 0-7.257 0-14.417-1.225-21.043-3.604-.227.502-.449 1.017-.661 1.562-2.816 7.237-3.728 15.266-2.635 23.222l3.956 28.78c0 47.54 28.762 75.007 41.129 84.608 20.286 15.755 48.992 15.87 69.425 0 12.367-9.602 41.129-37.07 41.125-84.548l3.959-28.833c1.082-7.877.2-15.833-2.55-23.009-.125-.325-.255-.631-.385-.939z" fill="#f9ba8f"/></g><g><path d="m277.773 292.093c-12.367-9.602-41.129-37.068-41.129-84.608l-3.956-28.78c-.991-7.217-.316-14.488 1.917-21.18-17.976 0-32.335 0-34.063 0-7.257 0-14.416-1.225-21.043-3.604-.227.502-.449 1.017-.661 1.562-2.816 7.237-3.728 15.266-2.635 23.222l3.956 28.78c0 47.54 28.762 75.007 41.129 84.608 18.226 14.155 43.244 15.676 62.957 4.332-2.232-1.283-4.398-2.721-6.472-4.332z" fill="#fcad6d"/></g><path d="m397.488 445.721c-2.337-1.988-5.054-4.716-7.776-8.34h-130.072c-1.181 1.977-2.392 3.96-3.64 5.948v68.671c53.888 0 103.702-17.412 144.153-46.897.494-2.001.997-3.974 1.514-5.888 1.338-4.944-.298-10.193-4.179-13.494z" fill="#ffc839"/><path d="m252.36 437.38h-130.072c-2.722 3.624-5.439 6.352-7.776 8.34-3.881 3.301-5.517 8.55-4.18 13.495.518 1.914 1.02 3.886 1.514 5.888 40.452 29.485 90.266 46.897 144.154 46.897v-68.672c-1.247-1.988-2.458-3.971-3.64-5.948z" fill="#ffc839"/><g fill="#ffdd40"><path d="m141.046 330.058c-.582 12.033-1.908 35.884-4.444 65.669-1.809 21.252-8.768 34.777-15.4 43.052h132.003c-.854-1.412-1.693-2.822-2.516-4.228-1.412-2.413-2.938-4.753-4.608-6.992-32.629-43.737-48.294-85.118-55.03-107.404-1.361-4.503-5.865-7.234-10.438-6.334l-30.843 6.064c-4.878.96-8.481 5.158-8.724 10.173z"/><path d="m390.798 438.78c-6.632-8.276-13.591-21.8-15.4-43.052-2.536-29.785-3.862-53.636-4.444-65.669-.243-5.016-3.846-9.214-8.724-10.173l-30.843-6.064c-4.574-.899-9.078 1.832-10.438 6.334-6.735 22.287-22.4 63.668-55.03 107.404-1.67 2.238-3.196 4.579-4.608 6.992-.823 1.406-1.662 2.816-2.516 4.228z"/><path d="m256 436.328c-3.826 0-6.928 3.134-6.928 7v68.569c2.302.064 4.611.103 6.928.103s4.626-.039 6.928-.103v-68.569c0-3.865-3.102-7-6.928-7z"/></g><g><path d="m256 487.466c-4.783 0-8.66-3.918-8.66-8.75v-17.257c0-4.832 3.878-8.75 8.66-8.75s8.66 3.918 8.66 8.75v17.257c0 4.832-3.877 8.75-8.66 8.75z" fill="#e9efff"/></g><path d="m352.039 315.782-16.544-3.253c-2.128-.418-4.106 1.228-4.106 3.419v184.215c8.001-2.585 15.821-5.569 23.439-8.931v-172.031c0-1.667-1.17-3.101-2.789-3.419z" fill="#ffb332"/><path d="m176.505 312.53-16.544 3.253c-1.62.318-2.789 1.752-2.789 3.419v172.031c7.617 3.362 15.438 6.346 23.439 8.931v-184.216c0-2.19-1.978-3.837-4.106-3.418z" fill="#ffb332"/><path d="m347.637 449.089c-8.169 3.296-16.248-2.594-16.248-10.641v61.715c8.001-2.585 15.821-5.569 23.439-8.931v-52.88c0 4.705-2.828 8.976-7.191 10.737z" fill="#ff9100"/><path d="m164.596 449.182c-4.872-1.96-7.423-6.35-7.423-10.83v52.88c7.617 3.362 15.438 6.346 23.439 8.931v-61.715c-.001 8.255-8.357 13.816-16.016 10.734z" fill="#ff9100"/><path d="m364.462 97.569-7.05-2.911c.339 2.84.533 5.117.64 6.638.094 1.346-.304 2.692-1.122 3.791-6.49 8.722-15.583 14.893-22.069 18.534-5.774 3.242-12.461 4.955-19.338 4.955h-58.087-58.087c-6.878 0-13.565-1.713-19.338-4.955-6.486-3.641-15.58-9.812-22.069-18.534-.818-1.099-1.217-2.445-1.122-3.791.107-1.52.3-3.797.639-6.638l-7.05 2.911c-6.319 2.609-9.488 8.896-7.461 14.767 2.658 7.698 7.002 18.269 13.053 26.687 2.71 3.77 6.114 6.932 9.695 9.553 9.751 7.137 22.156 10.868 34.847 10.868h113.785c12.691 0 25.096-3.731 34.847-10.868 3.582-2.621 6.986-5.783 9.695-9.553 6.051-8.418 10.395-18.989 13.053-26.687 2.027-5.871-1.142-12.158-7.461-14.767z" fill="#ffe98d"/><path d="m234.018 159.443c-14.743-14.743 1.292-30.161 1.292-30.161l-.725-.707h-35.236c-6.878 0-13.565-1.713-19.338-4.955-6.486-3.641-15.58-9.812-22.069-18.534-.818-1.099-1.217-2.445-1.122-3.791.107-1.52.3-3.797.64-6.638l-7.05 2.911c-6.32 2.609-9.488 8.896-7.461 14.767 2.658 7.698 7.002 18.269 13.053 26.687 2.71 3.77 6.114 6.932 9.696 9.553 9.751 7.137 22.156 10.868 34.847 10.868z" fill="#ffdd40"/><path d="m235.31 10.778c-14.047 2.609-32.435 8.378-47.957 21.104-26.078 21.38-30.613 61.603-31.337 71.245-.104 1.389.324 2.774 1.252 3.939 6.441 8.077 15.371 13.854 22.309 17.489 5.904 3.093 12.765 4.727 19.771 4.727h35.962z" fill="#ffc839"/><path d="m327.518 31.883c-13.849-11.354-29.98-17.17-43.273-20.146v117.546h31.277c7.006 0 13.867-1.635 19.771-4.727 6.938-3.635 15.868-9.412 22.309-17.489.928-1.164 1.357-2.55 1.253-3.939-.724-9.642-5.26-49.865-31.337-71.245z" fill="#ffdd40"/><path d="m221.195 99.859c10.538-8.178 23.1-20.799 23.1-34.483v-59.229c0-.081.01-.16.014-.24-4.994.577-11.093 1.573-17.734 3.289-3.807.984-6.406 3.871-6.406 7.144v84.357c.34-.281.675-.565 1.026-.838z" fill="#ff9100"/><path d="m270.576 6.147v59.229c0 13.685 12.562 26.305 23.1 34.483.351.272.686.557 1.025.838v-84.357c0-3.273-2.599-6.16-6.406-7.144-6.641-1.716-12.74-2.712-17.733-3.289.004.08.014.159.014.24z" fill="#ffb332"/><path d="m294.229 99.38c-10.418-8.084-22.849-20.549-22.849-34.004v-59.229c0-3.081-2.886-5.642-6.631-5.899-4.74-.326-9.752-.335-14.627 0-3.745.257-6.632 2.818-6.632 5.899v59.229c0 13.455-12.431 25.92-22.849 34.004-8.929 6.929-13.98 16.565-13.98 26.645v3.258h101.548v-3.258c0-10.08-5.051-19.716-13.98-26.645z" fill="#ffc839"/><g fill="#ffb332"><path d="m242.665 71.481h-.001c-.006.021-.01.043-.016.064.009-.037.017-.064.017-.064z"/><path d="m257.188 102.114c-20.709-4.962-15.039-28.637-14.558-30.503-2.985 11.016-13.203 20.951-21.99 27.769-8.929 6.929-13.98 16.565-13.98 26.645v3.258h52.24c6.043-11.365 9.945-24.376-1.712-27.169z"/></g><path d="m279.56 129.283v-6.622c0-10.795-9.078-20.568-22.372-20.547-12.11.019-21.878 9.265-21.878 20.552v6.617z" fill="#ffdd40"/><path d="m403.649 71.481c-9.73 11.043-20.934 31.699-5.315 59.466 24 42.667-79.333 140.886-14.667 166.11 44.214 17.246 80.632 26.595 102.658 53.635 9.493-26.116 14.678-54.299 14.678-83.695-.001-79.861-38.219-150.788-97.354-195.516z" fill="#73c3f9"/><path d="m108.351 71.481c9.73 11.043 20.934 31.699 5.315 59.466-24 42.667 79.333 140.886 14.667 166.11-44.214 17.246-80.632 26.595-102.658 53.635-9.493-26.116-14.678-54.299-14.678-83.695.001-79.861 38.218-150.788 97.354-195.516z" fill="#73c3f9"/><path d="m356.794 88.057c-3.162-16.487-10.822-41.044-29.276-56.174-2.178-1.786-4.417-3.419-6.688-4.941-4.74 3.372-9.08 8.929-9.08 18.006 0 20 .552 57.167 19.443 57.167 13.628-.001 21.996-5.814 25.601-14.058z" fill="#ffe98d"/></g></svg>